:SAMPLES-PER-SECOND 30
:FULLY-SPECIFIED
:DEGREES
47
root  53.1071 38.1023 10.4475 166.724 -64.7813 -167.242
RightUpLeg  -12.6651 -14.875 6.85783
RightLeg  33.4972 -2.14233 -2.01584
RightFoot  -16.2001 -0.347797 -5.47859
RightToes  -1.16417e-010 0 -3.6325e-017
Spine  12.7768 -2.2304 6.21879
Spine1  3.14661 -2.66926 6.60533
HEad  -10.4711 -28.5566 15.2439
LeftShoulder1  6.60699 -10.1231 -42.0832
LeftArm  -7.54249 29.5706 -26.0045
LeftForeArm  38.8764 -8.40638 -5.24515
LeftHand  -0.244104 0.0205437 5.32207
RightShoulder  4.4533 7.25078 35.4346
RightArm  -31.3923 -2.10823 23.6462
RightForeArm  -60.0465 63.0679 26.3968
RightHand  -6.52155 16.0107 -34.6213
LeftUpLeg  -16.7395 15.9969 4.96185
LeftLeg  69.6346 5.01555 15.6124
LeftFoot  -11.7643 0.0656996 -1.00668
LeftToes  4.18335e-011 -7.14095e-012 4.81992e-012
48
root  51.9136 39.4177 10.5671 173.257 -64.7776 -172.887
RightUpLeg  -7.64253 -15.751 2.17276
RightLeg  23.3966 0.147328 0.77054
RightFoot  -10.3776 -0.0602149 -2.62368
RightToes  -1.16417e-010 0 -3.6325e-017
Spine  11.1067 -1.63636 4.38733
Spine1  2.51318 -2.1309 5.80029
HEad  -8.75699 -28.9391 13.779
LeftShoulder1  6.34829 -9.89216 -41.0629
LeftArm  -8.90643 35.1177 -26.6512
LeftForeArm  34.9517 -7.77848 -4.6306
LeftHand  -0.244104 0.0205437 5.32207
RightShoulder  4.06617 6.44395 34.9122
RightArm  -33.7118 -4.67048 25.0682
RightForeArm  -57.2084 63.4928 26.9176
RightHand  -6.39844 15.8561 -34.2426
LeftUpLeg  -18.6752 14.1253 2.76537
LeftLeg  62.2859 5.34022 11.5897
LeftFoot  -12.1623 0.0572875 -2.2565
LeftToes  4.18335e-011 -7.14095e-012 4.81992e-012
49
root  50.752 40.5339 10.7144 -179.667 -63.9082 -178.284
RightUpLeg  -4.27541 -10.9996 -2.72597
RightLeg  15.2132 -4.03839 2.79667
RightFoot  -4.74385 -0.0934573 1.15796
RightToes  -1.16417e-010 0 -3.6325e-017
Spine  9.13013 -0.751982 3.17885
Spine1  1.26558 -1.12458 4.09618
HEad  -6.85582 -29.0557 11.5796
LeftShoulder1  6.20435 -10.0178 -39.6457
LeftArm  -10.2271 40.9039 -27.1115
LeftForeArm  32.0513 -8.59006 -4.03527
LeftHand  -0.244104 0.0205437 5.32207
RightShoulder  3.77403 5.80258 34.59
RightArm  -36.0121 -7.35572 25.5974
RightForeArm  -53.2271 64.5851 28.3106
RightHand  -6.07419 15.2107 -33.5727
LeftUpLeg  -20.8414 13.3817 0.677535
LeftLeg  52.9048 5.28058 7.88289
LeftFoot  -11.9536 0.0519649 -3.69965
LeftToes  4.18335e-011 -7.14095e-012 4.81992e-012
50
root  49.723 41.3013 10.9316 -175.275 -61.7578 178.856
RightUpLeg  -3.02864 -10.6348 -5.50668
RightLeg  12.8577 -4.92509 2.95613
RightFoot  -1.15955 -0.316396 3.52655
RightToes  -1.16417e-010 0 -3.6325e-017
Spine  8.19794 0.332823 3.08563
Spine1  0.0946005 0.224887 2.14023
HEad  -6.2277 -28.3432 9.26855
LeftShoulder1  6.03652 -10.0885 -38.2378
LeftArm  -11.7918 46.2313 -27.6753
LeftForeArm  29.9016 -10.2782 -3.40965
LeftHand  -0.244104 0.0205437 5.32207
RightShoulder  3.55871 5.41207 33.9549
RightArm  -37.752 -8.73064 25.1845
RightForeArm  -48.0583 66.0831 30.4276
RightHand  -5.60046 14.2801 -32.499
LeftUpLeg  -22.7113 14.5671 -0.144286
LeftLeg  43.5492 5.57225 6.02492
LeftFoot  -11.4951 0.0630026 -4.09811
LeftToes  4.18335e-011 -7.14095e-012 4.81992e-012
51
root  48.8301 41.6389 11.1993 -174.107 -59.4608 178.016
RightUpLeg  -1.64745 -12.9621 -7.17389
RightLeg  14.6775 -2.61768 1.87222
RightFoot  1.10628 -0.493416 4.58411
RightToes  -1.16417e-010 0 -3.6325e-017
Spine  8.9411 1.19494 3.08362
Spine1  0.0183892 1.26613 0.98297
HEad  -8.39837 -26.5776 8.55455
LeftShoulder1  5.71217 -9.77558 -36.8895
LeftArm  -13.807 50.2404 -29.0767
LeftForeArm  27.5946 -11.942 -2.84736
LeftHand  -0.244104 0.0205437 5.32207
RightShoulder  3.379 5.23329 32.7236
RightArm  -39.0973 -8.10827 24.4867
RightForeArm  -42.3468 67.5867 32.8472
RightHand  -5.29552 13.7677 -31.6143
LeftUpLeg  -23.6338 16.5404 0.238685
LeftLeg  35.2471 5.56883 4.58337
LeftFoot  -10.5407 0.0917132 -4.06394
LeftToes  4.18335e-011 -7.14095e-012 4.81992e-012
52
root  47.9753 41.5118 11.4326 -173.445 -58.3428 176.886
RightUpLeg  1.4963 -14.084 -9.31996
RightLeg  15.0892 -0.641492 1.37639
RightFoot  2.3984 -0.720906 6.10209
RightToes  -1.16417e-010 0 -3.6325e-017
Spine  10.1022 1.4547 2.09409
Spine1  0.769894 1.55375 0.462757
HEad  -12.0591 -24.1771 9.71702
LeftShoulder1  5.35091 -9.37328 -35.4698
LeftArm  -15.7975 53.2768 -30.611
LeftForeArm  25.4824 -13.0824 -2.44905
LeftHand  -0.244104 0.0205437 5.32207
RightShoulder  3.25854 5.20558 31.46
RightArm  -40.1232 -6.49977 23.6985
RightForeArm  -37.792 68.7329 34.9491
RightHand  -5.27794 13.8248 -31.4244
LeftUpLeg  -24.2469 17.6421 0.646458
LeftLeg  28.1259 4.75712 3.09557
LeftFoot  -8.38259 0.166568 -4.45221
LeftToes  4.18335e-011 -7.14095e-012 4.81992e-012
